<svg width="18" height="11" viewBox="0 0 18 11" fill="none" xmlns="http://www.w3.org/2000/svg">
<path d="M0.307165 1.51384L1.05383 0.75384C1.17901 0.627631 1.34941 0.556641 1.52717 0.556641C1.70492 0.556641 1.87532 0.627631 2.0005 0.75384L8.66717 7.42051L15.3338 0.75384C15.459 0.627631 15.6294 0.556641 15.8072 0.556641C15.9849 0.556641 16.1553 0.627631 16.2805 0.75384L17.0272 1.51384C17.1534 1.63902 17.2244 1.80941 17.2244 1.98717C17.2244 2.16493 17.1534 2.33533 17.0272 2.46051L9.1205 10.3672C8.86127 10.6213 8.44639 10.6213 8.18717 10.3672L0.307165 2.46051C0.180956 2.33533 0.109966 2.16493 0.109966 1.98717C0.109966 1.80941 0.180956 1.63902 0.307165 1.51384Z" fill="#222222"/>
</svg>
