<svg width="213" height="20" viewBox="0 0 213 20" fill="none" xmlns="http://www.w3.org/2000/svg">
<path fill-rule="evenodd" clip-rule="evenodd" d="M36.9911 8.60765V16.5817H35.7201V8.60765H34.4231V7.82765H35.7201V6.56165C35.7201 4.97065 36.6631 3.81665 38.5131 3.81665C38.6481 3.81665 38.8131 3.83365 38.8131 3.83365V4.64565H38.6631C37.7831 4.64565 36.9911 5.21365 36.9911 6.41465V7.82765H38.8131V8.60765H36.9911ZM28.5663 6.10715C26.2513 6.10715 25.4293 8.64015 25.4293 10.9622C25.4293 13.2522 26.1763 15.7691 28.5663 15.7691C30.9703 15.7691 31.6883 13.2522 31.6883 10.9622C31.6883 8.64015 30.8803 6.10715 28.5663 6.10715ZM28.5663 16.7922C25.4293 16.7922 24.0273 14.1941 24.0273 10.9952C24.0273 7.82915 25.4293 5.19715 28.5663 5.19715C31.7033 5.19715 33.0903 7.82915 33.0903 10.9952C33.0903 14.1941 31.7033 16.7922 28.5663 16.7922ZM42.2333 16.5817V8.60765H44.0553V7.82765H42.2333V6.41465C42.2333 5.21365 43.0263 4.64565 43.9073 4.64565H44.0553V3.83365C44.0553 3.83365 43.8903 3.81665 43.7563 3.81665C41.9053 3.81665 40.9633 4.97065 40.9633 6.56165V7.82765H39.6653V8.60765H40.9633V16.5817H42.2333ZM45.506 16.582H46.79V7.82895H45.506V16.582ZM46.148 6.15595C45.7 6.15595 45.341 5.81495 45.341 5.37595C45.341 4.93795 45.7 4.58095 46.148 4.58095C46.597 4.58095 46.954 4.93795 46.954 5.37595C46.954 5.81495 46.597 6.15595 46.148 6.15595ZM48.5827 12.1968C48.5827 15.0058 50.1807 16.7917 52.2567 16.7917C53.3177 16.7917 54.0627 16.4998 54.4367 16.1918L54.0927 15.3468C53.7357 15.5908 53.1967 15.8188 52.5397 15.8188C50.9427 15.8188 49.8967 14.2918 49.8967 12.1478C49.8967 10.0698 50.8077 8.52675 52.5857 8.52675C53.2867 8.52675 53.8247 8.78675 54.1077 8.99775L54.4367 8.21875C54.0627 7.90975 53.3607 7.61775 52.3007 7.61775C50.1807 7.61775 48.5827 9.33875 48.5827 12.1968ZM59.0526 8.44555C57.6336 8.44555 56.4386 9.54955 56.4536 12.0016L61.4276 11.3196C61.4276 9.28955 60.4566 8.44555 59.0526 8.44555ZM56.5136 12.7326C56.6776 14.7946 57.8126 15.8336 59.5896 15.8336C60.6656 15.8336 61.4866 15.5586 61.9646 15.2986L62.3376 16.1916C61.7836 16.4995 60.7546 16.7926 59.4996 16.7926C57.0376 16.7926 55.2896 15.3306 55.2896 12.1796C55.2896 9.17655 56.9016 7.61655 59.0976 7.61655C61.3216 7.61655 62.6806 8.98155 62.6806 11.9036L56.5136 12.7326ZM68.8632 16.5817V8.60765H70.6852V7.82765H68.8632V6.41465C68.8632 5.21365 69.6552 4.64565 70.5352 4.64565H70.6852V3.83365C70.6852 3.83365 70.5202 3.81665 70.3852 3.81665C68.5352 3.81665 67.5942 4.97065 67.5942 6.56165V7.82765H66.2932V8.60765H67.5942V16.5817H68.8632ZM75.329 8.47775C73.418 8.47775 72.865 10.4098 72.865 12.2128C72.865 14.0157 73.464 15.8658 75.329 15.8658C77.241 15.8658 77.793 14.0157 77.793 12.2128C77.793 10.4098 77.241 8.47775 75.329 8.47775ZM75.329 16.7917C72.746 16.7917 71.566 14.7948 71.566 12.2128C71.566 9.63075 72.746 7.61775 75.329 7.61775C77.913 7.61775 79.079 9.63075 79.079 12.2128C79.079 14.7948 77.913 16.7917 75.329 16.7917ZM82.0507 8.80235C82.6037 8.46135 83.7837 8.42935 84.5907 8.64035L84.9187 7.63335C84.7837 7.61735 84.4857 7.61735 84.2607 7.61735C82.6197 7.61735 81.6917 7.82835 80.7667 8.21835V16.5814H82.0507V8.80235ZM96.1141 16.6668L91.1561 9.01675C90.7831 8.44875 90.5141 7.88175 90.5141 7.88175H90.4841C90.4841 7.88175 90.5291 8.53075 90.5291 9.21175V16.6668H88.9011V5.49375H90.7381L95.4421 12.6868C95.8611 13.3208 96.1001 13.8418 96.1001 13.8418H96.1301C96.1301 13.8418 96.0701 13.2067 96.0701 12.5408V5.49375H97.7121V16.6668H96.1141ZM101.06 14.151C101.06 12.46 102.508 12.0549 104.673 11.826V15.545C104.345 15.708 103.822 15.837 103.211 15.837C101.898 15.837 101.06 15.333 101.06 14.151ZM99.2837 14.197C99.2837 15.87 100.493 16.894 103.061 16.894C104.51 16.894 105.69 16.634 106.437 16.261V10.722C106.437 8.48095 104.942 7.68595 103.001 7.68595C101.611 7.68595 100.463 8.05995 99.8497 8.31895L100.283 9.39195C100.837 9.13095 101.808 8.88595 102.658 8.88595C103.854 8.88595 104.673 9.24495 104.673 10.4469V10.951C101.747 11.209 99.2837 11.845 99.2837 14.197ZM111.515 16.8605C109.676 16.8605 108.976 15.6746 108.976 14.4906V9.04955H107.75V7.91355H108.976V5.94855L110.842 5.42955V7.91355H112.543V9.04955H110.842V14.3926C110.842 15.0736 111.244 15.6105 112.036 15.6105C112.214 15.6105 112.365 15.5775 112.543 15.5286V16.6816C112.365 16.7635 111.993 16.8605 111.515 16.8605ZM115.891 16.667H114.009V7.91395H115.891V16.667ZM113.86 5.42995C113.86 5.96495 114.35 6.40295 114.949 6.40295C115.547 6.40295 116.039 5.96495 116.039 5.42995C116.039 4.89395 115.547 4.45395 114.949 4.45395C114.35 4.45395 113.86 4.89395 113.86 5.42995ZM121.506 8.88695C119.894 8.88695 119.414 10.576 119.414 12.2819C119.414 13.986 119.923 15.61 121.506 15.61C123.119 15.61 123.597 13.986 123.597 12.2819C123.597 10.576 123.119 8.88695 121.506 8.88695ZM121.506 16.894C118.832 16.894 117.504 14.9109 117.504 12.298C117.504 9.68495 118.832 7.68595 121.506 7.68595C124.179 7.68595 125.493 9.68495 125.493 12.298C125.493 14.9109 124.179 16.894 121.506 16.894ZM132.44 10.4138V16.6667H134.321V10.3818C134.321 8.46475 132.796 7.68575 130.511 7.68575C129.137 7.68575 127.854 7.96175 127.032 8.31975V16.6667H128.899V9.13075C129.257 8.98375 129.826 8.87075 130.408 8.87075C131.484 8.87075 132.44 9.29275 132.44 10.4138ZM141.191 11.826C139.026 12.0549 137.578 12.46 137.578 14.151C137.578 15.333 138.415 15.837 139.729 15.837C140.34 15.837 140.863 15.708 141.191 15.545V11.826ZM139.58 16.894C137.01 16.894 135.799 15.87 135.799 14.197C135.799 11.845 138.266 11.209 141.191 10.951V10.4469C141.191 9.24495 140.372 8.88595 139.175 8.88595C138.326 8.88595 137.355 9.13095 136.801 9.39195L136.369 8.31895C136.98 8.05995 138.128 7.68595 139.52 7.68595C141.461 7.68595 142.954 8.48095 142.954 10.722V16.261C142.208 16.634 141.028 16.894 139.58 16.894ZM144.883 12.4427V16.6667H146.749V8.24275V3.91775H144.883V12.4427ZM154.171 16.8938C152.827 16.8938 151.736 16.5998 151.125 16.2607L151.647 14.8958C152.096 15.1548 152.932 15.4307 153.798 15.4307C155.097 15.4307 156.023 14.6688 156.023 13.5638C156.023 12.445 155.055 12.0332 154.003 11.5854C152.75 11.0523 151.378 10.4682 151.378 8.57875C151.378 6.80775 152.812 5.26575 155.081 5.26575C156.291 5.26575 157.247 5.59075 157.769 5.89975L157.292 7.11675C156.889 6.87375 156.11 6.59675 155.335 6.59675C154.126 6.59675 153.334 7.32775 153.334 8.36775C153.334 9.44002 154.279 9.82675 155.326 10.2551C156.625 10.7866 158.081 11.3822 158.081 13.4318C158.081 15.4158 156.455 16.8938 154.171 16.8938ZM160.279 14.4906C160.279 15.6746 160.983 16.8605 162.819 16.8605C163.297 16.8605 163.671 16.7635 163.849 16.6816V15.5286C163.671 15.5775 163.522 15.6105 163.341 15.6105C162.55 15.6105 162.148 15.0736 162.148 14.3926V9.04955H163.849V7.91355H162.148V5.42955L160.279 5.94855V7.91355H159.056V9.04955H160.279V14.4906ZM170.258 11.826C168.093 12.0549 166.644 12.46 166.644 14.151C166.644 15.333 167.482 15.837 168.793 15.837C169.405 15.837 169.93 15.708 170.258 15.545V11.826ZM168.644 16.894C166.075 16.894 164.866 15.87 164.866 14.197C164.866 11.845 167.331 11.209 170.258 10.951V10.4469C170.258 9.24495 169.436 8.88595 168.241 8.88595C167.391 8.88595 166.421 9.13095 165.866 9.39195L165.434 8.31895C166.047 8.05995 167.195 7.68595 168.584 7.68595C170.526 7.68595 172.02 8.48095 172.02 10.722V16.261C171.273 16.634 170.094 16.894 168.644 16.894ZM174.559 14.4906C174.559 15.6746 175.261 16.8605 177.099 16.8605C177.576 16.8605 177.951 16.7635 178.129 16.6816V15.5286C177.951 15.5775 177.799 15.6105 177.62 15.6105C176.828 15.6105 176.426 15.0736 176.426 14.3926V9.04955H178.129V7.91355H176.426V5.42955L174.559 5.94855V7.91355H173.335V9.04955H174.559V14.4906ZM179.592 16.667H181.476V7.91395H179.592V16.667ZM180.532 6.40295C179.935 6.40295 179.443 5.96495 179.443 5.42995C179.443 4.89395 179.935 4.45395 180.532 4.45395C181.13 4.45395 181.624 4.89395 181.624 5.42995C181.624 5.96495 181.13 6.40295 180.532 6.40295ZM182.908 16.2607C183.433 16.5858 184.462 16.8938 185.553 16.8938C187.643 16.8938 188.972 15.5618 188.972 14.1648C188.972 12.5559 187.786 12.0937 186.72 11.6781C185.85 11.3387 185.059 11.0304 185.059 10.1538C185.059 9.48775 185.657 8.90375 186.627 8.90375C187.36 8.90375 187.942 9.21175 188.226 9.40575L188.718 8.31975C188.12 7.96275 187.329 7.68575 186.253 7.68575C184.359 7.68575 183.194 8.95175 183.194 10.2518C183.194 11.7935 184.311 12.2199 185.34 12.6125C186.217 12.9474 187.031 13.2577 187.031 14.2148C187.031 14.9608 186.269 15.5778 185.314 15.5778C184.522 15.5778 183.775 15.3178 183.404 15.0588L182.908 16.2607ZM193.724 16.8605C191.888 16.8605 191.185 15.6746 191.185 14.4906V9.04955H189.96V7.91355H191.185V5.94855L193.052 5.42955V7.91355H194.754V9.04955H193.052V14.3926C193.052 15.0736 193.454 15.6105 194.246 15.6105C194.425 15.6105 194.576 15.5775 194.754 15.5286V16.6816C194.576 16.7635 194.201 16.8605 193.724 16.8605ZM198.102 16.667H196.22V7.91395H198.102V16.667ZM196.07 5.42995C196.07 5.96495 196.561 6.40295 197.159 6.40295C197.756 6.40295 198.25 5.96495 198.25 5.42995C198.25 4.89395 197.756 4.45395 197.159 4.45395C196.561 4.45395 196.07 4.89395 196.07 5.42995ZM203.508 16.8938C201.357 16.8938 199.715 15.1378 199.715 12.2818C199.715 9.39175 201.402 7.68575 203.521 7.68575C204.612 7.68575 205.343 7.99475 205.762 8.31975L205.343 9.37375C205.075 9.17975 204.597 8.95175 203.969 8.95175C202.446 8.95175 201.655 10.2678 201.655 12.2327C201.655 14.2318 202.567 15.5458 203.94 15.5458C204.538 15.5458 204.987 15.3338 205.314 15.1058L205.777 16.2607C205.388 16.5858 204.627 16.8938 203.508 16.8938ZM206.74 16.2607C207.263 16.5858 208.294 16.8938 209.384 16.8938C211.474 16.8938 212.803 15.5618 212.803 14.1648C212.803 12.5559 211.617 12.0937 210.551 11.6781C209.681 11.3387 208.89 11.0304 208.89 10.1538C208.89 9.48775 209.488 8.90375 210.459 8.90375C211.192 8.90375 211.774 9.21175 212.057 9.40575L212.549 8.31975C211.952 7.96275 211.161 7.68575 210.085 7.68575C208.191 7.68575 207.026 8.95175 207.026 10.2518C207.026 11.7935 208.143 12.2199 209.172 12.6125C210.05 12.9474 210.863 13.2577 210.863 14.2148C210.863 14.9608 210.1 15.5778 209.146 15.5778C208.354 15.5778 207.607 15.3178 207.236 15.0588L206.74 16.2607Z" fill="white"/>
<path fill-rule="evenodd" clip-rule="evenodd" d="M3.39142 13.6572C2.71342 12.8652 2.13442 12.0062 1.63942 11.1032C1.00942 12.2952 0.473418 13.5782 0.00341797 14.9352V18.5612L10.8394 18.5822C7.40942 17.5392 5.34642 15.9502 3.39142 13.6572ZM18.5164 1.17623C12.6304 1.73623 8.61442 3.41623 5.73442 5.87723C4.18942 7.19823 3.23742 8.29323 2.23442 10.0532C4.49142 14.4352 9.07942 18.1192 16.2604 18.5892L16.4014 18.5912C16.4014 18.5912 18.6084 18.6652 18.6084 16.2112V1.15723C18.5794 1.16523 18.5484 1.17223 18.5164 1.17623Z" fill="white"/>
<path fill-rule="evenodd" clip-rule="evenodd" d="M1.74 5.47177e-08C1.74 5.47177e-08 0.004 -0.00399995 0.004 2.151C0.004 2.291 0.003 1.907 0.003 2.496C0.168 4.468 0.776 6.489 1.467 8.265C2.441 6.728 3.332 5.765 4.754 4.549C7.569 2.138 10.873 0.734 16.017 5.47177e-08H1.74ZM0.004 10.88C0.284 10.299 0.49 9.847 0.814 9.297C0.443 8.411 0.233 7.969 0 7.025C0 8.562 0.004 9.6 0.004 10.88Z" fill="#C1C600"/>
</svg>
