<svg id="Layer_1" data-name="Layer 1" xmlns="http://www.w3.org/2000/svg" viewBox="0 0 60 1750"><defs><style>.cls-1{fill:#b4b4b4;}.cls-2{fill:#b2b6c4;}.cls-3{fill:#363b58;}.cls-4{opacity:0.25;}.cls-5{fill:#b1b6c4;}.cls-6{fill:#363b57;}.cls-7{opacity:0.4;}.cls-11,.cls-13,.cls-8{fill:none;stroke:#b2b6c4;}.cls-11,.cls-8{stroke-linecap:round;}.cls-8{stroke-linejoin:round;stroke-width:4px;}.cls-9{fill:#c49a6c;}.cls-10{fill:#846241;}.cls-11,.cls-13{stroke-miterlimit:10;stroke-width:3px;}.cls-12{fill:#fff;}</style></defs><title>Artboard 1</title><polyline class="cls-1" points="45 21 45 51 15 51 15 9 34 9"/><g id="browse_icon" data-name="browse icon"><rect class="cls-2" x="22" y="211" width="16" height="12"/><rect class="cls-2" x="28" y="223" width="4" height="8"/><rect class="cls-2" x="42" y="231" width="4" height="8"/><rect class="cls-2" x="14" y="231" width="4" height="8"/><rect class="cls-2" x="8" y="229" width="44" height="4"/><rect class="cls-2" x="36" y="239" width="16" height="12"/><rect class="cls-2" x="8" y="239" width="16" height="12"/></g><polyline class="cls-2" points="44 85 44 115 14 115 14 73 32 73"/><polyline class="cls-2" points="44 155 44 185 14 185 14 143 32 143"/><rect class="cls-3" x="26" y="87" width="4" height="16"/><rect class="cls-3" x="20" y="93" width="16" height="4"/><rect class="cls-3" x="18" y="155" width="16" height="4"/><rect class="cls-3" x="18" y="161" width="22" height="4"/><rect class="cls-3" x="18" y="167" width="6" height="4"/><rect class="cls-3" x="18" y="173" width="10" height="4"/><rect class="cls-3" x="26" y="167" width="12" height="4"/><g class="cls-4"><rect class="cls-3" x="28" y="290" width="4" height="40"/><rect class="cls-3" x="10" y="308" width="40" height="4"/><polygon class="cls-3" points="40 328 30 338 20 328 40 328"/><polygon class="cls-3" points="20 292 30 282 40 292 20 292"/><polygon class="cls-3" points="48 299 58 309 48 319 48 299"/><polygon class="cls-3" points="12 319 2 309 12 299 12 319"/></g><path class="cls-5" d="M16.07,417A14.38,14.38,0,0,1,5.91,392.5l16.27-16.27A14.38,14.38,0,0,1,42.5,396.57L26.24,412.84A14.27,14.27,0,0,1,16.07,417Zm16.27-39.26a8.57,8.57,0,0,0-6.1,2.52L10,396.57a8.63,8.63,0,0,0,12.2,12.2L38.44,392.5a8.62,8.62,0,0,0-6.1-14.72Z"/><path class="cls-6" d="M32.34,373a13.41,13.41,0,0,1,9.49,22.9L25.56,412.16a13.42,13.42,0,0,1-19-19l16.27-16.27A13.38,13.38,0,0,1,32.34,373M16.07,412.25a9.55,9.55,0,0,0,6.78-2.8l16.27-16.27a9.58,9.58,0,0,0-13.55-13.55L9.29,395.89a9.58,9.58,0,0,0,6.78,16.36m16.27-41.17h0a15.23,15.23,0,0,0-10.84,4.49L5.23,391.83a15.34,15.34,0,0,0,21.69,21.69l16.27-16.27a15.33,15.33,0,0,0-10.84-26.17ZM16.07,410.33a7.67,7.67,0,0,1-5.42-13.08L26.92,381a7.67,7.67,0,1,1,10.84,10.84L21.49,408.09a7.62,7.62,0,0,1-5.42,2.24Z"/><path class="cls-5" d="M27.15,406A14.37,14.37,0,0,1,17,381.43l16.27-16.26A14.38,14.38,0,0,1,53.58,385.5L37.31,401.76A14.28,14.28,0,0,1,27.15,406Zm16.27-39.26a8.57,8.57,0,0,0-6.1,2.52L21,385.5a8.63,8.63,0,0,0,12.2,12.2l16.27-16.27a8.62,8.62,0,0,0-6.1-14.72Z"/><path class="cls-6" d="M43.41,361.92a13.41,13.41,0,0,1,9.49,22.9L36.64,401.08a13.42,13.42,0,0,1-19-19l16.27-16.27a13.38,13.38,0,0,1,9.49-3.92M27.15,401.17a9.55,9.55,0,0,0,6.78-2.8l16.27-16.27a9.58,9.58,0,0,0-13.55-13.55L20.37,384.82a9.58,9.58,0,0,0,6.78,16.36M43.42,360h0a15.23,15.23,0,0,0-10.84,4.49L16.3,380.75A15.34,15.34,0,0,0,38,402.44l16.27-16.27A15.33,15.33,0,0,0,43.42,360ZM27.15,399.26a7.66,7.66,0,0,1-5.42-13.09L38,369.91a7.67,7.67,0,0,1,10.84,10.84L32.57,397a7.62,7.62,0,0,1-5.42,2.24Z"/><polygon class="cls-5" points="17.34 457.69 24.41 464.76 17.34 464.76 10.27 464.76 10.27 457.69 10.27 450.62 17.34 457.69"/><path class="cls-5" d="M18.16,459.41a18.5,18.5,0,1,1,0,26.16l-.26-.28a22.47,22.47,0,0,1-2.57,3.11,22.5,22.5,0,1,0,0-31.82,22.47,22.47,0,0,1,2.57,3.11Z"/><polygon class="cls-5" points="44.66 537.69 37.59 544.76 44.66 544.76 51.73 544.76 51.73 537.69 51.73 530.62 44.66 537.69"/><path class="cls-5" d="M43.84,539.41a18.5,18.5,0,1,0,0,26.16l.26-.28a22.47,22.47,0,0,0,2.57,3.11,22.5,22.5,0,1,1,0-31.82,22.47,22.47,0,0,0-2.57,3.11Z"/><polyline class="cls-2" points="44 623 44 653 14 653 14 611 33 611"/><polygon class="cls-2" points="24.52 631.98 50.97 605.53 58.57 613.13 32.12 639.58 22.89 641.21 24.52 631.98"/><path class="cls-6" d="M51,606.95l6.18,6.18L31.63,638.65,24.12,640l1.33-7.51L51,606.95m0-2.83-1.41,1.41L24,631.05l-.45.45-.11.62-1.33,7.51-.5,2.82,2.82-.5L32,640.62l.62-.11.45-.45,25.52-25.52L60,613.13l-1.41-1.41-6.18-6.18L51,604.12Z"/><rect class="cls-2" x="8" y="706" width="12" height="23"/><rect class="cls-2" x="25" y="683" width="11" height="46"/><rect class="cls-2" x="41" y="697" width="11" height="32"/><rect class="cls-2" y="729" width="60" height="5"/><rect class="cls-2" x="4" y="823" width="52" height="3"/><g class="cls-7"><rect class="cls-2" x="4" y="815" width="52" height="1"/></g><g class="cls-7"><rect class="cls-2" x="4" y="805" width="52" height="1"/></g><g class="cls-7"><rect class="cls-2" x="4" y="795" width="52" height="1"/></g><g class="cls-7"><rect class="cls-2" x="4" y="785" width="52" height="1"/></g><g class="cls-7"><rect class="cls-2" x="4" y="775" width="52" height="1"/></g><rect class="cls-2" x="4" y="771" width="3" height="55"/><line class="cls-8" x1="7" y1="823" x2="24.12" y2="795.54"/><line class="cls-8" x1="24.12" y1="795.54" x2="36" y2="811.08"/><line class="cls-8" x1="36" y1="811.08" x2="53" y2="780"/><rect class="cls-2" x="4" y="1012" width="52" height="4"/><rect class="cls-2" x="4" y="961" width="4" height="55"/><line class="cls-8" x1="7" y1="1013" x2="24.12" y2="985.54"/><line class="cls-8" x1="24.12" y1="985.54" x2="36" y2="1001.08"/><line class="cls-8" x1="36" y1="1001.08" x2="51.75" y2="970"/><rect class="cls-9" x="9.93" y="853.42" width="40.14" height="31"/><polygon class="cls-9" points="32.6 860.25 9.93 860.25 9.93 847.58 24.45 847.58 32.6 860.25"/><rect class="cls-10" x="5.86" y="903.42" width="40.14" height="31"/><polygon class="cls-10" points="28.53 910.25 5.86 910.25 5.86 897.58 20.39 897.58 28.53 910.25"/><polygon class="cls-9" points="47 934.42 6.86 934.42 16.86 906.71 57 906.71 47 934.42"/><polygon class="cls-9" points="29.53 912.82 14.86 912.82 18.86 901.5 31.39 901.5 29.53 912.82"/><rect class="cls-2" x="3" y="1044" width="15" height="10"/><rect class="cls-2" x="22" y="1044" width="15" height="10"/><rect class="cls-2" x="41" y="1044" width="15" height="10"/><rect class="cls-2" x="3" y="1058" width="15" height="10"/><rect class="cls-2" x="22" y="1058" width="15" height="10"/><rect class="cls-2" x="41" y="1058" width="15" height="10"/><rect class="cls-2" x="3" y="1072" width="15" height="10"/><rect class="cls-2" x="22" y="1072" width="15" height="10"/><rect class="cls-2" x="41" y="1072" width="15" height="10"/><rect class="cls-2" x="3" y="1086" width="15" height="10"/><rect class="cls-2" x="22" y="1086" width="15" height="10"/><rect class="cls-2" x="41" y="1086" width="15" height="10"/><line class="cls-11" x1="44.13" y1="1131.25" x2="13.56" y2="1161.81"/><line class="cls-11" x1="13.56" y1="1161.81" x2="44.13" y2="1192.38"/><line class="cls-11" x1="13.84" y1="1289.25" x2="44.4" y2="1258.69"/><line class="cls-11" x1="44.4" y1="1258.69" x2="13.84" y2="1228.13"/><rect class="cls-2" x="4" y="1368" width="52" height="4"/><rect class="cls-2" x="4" y="1320" width="52" height="4"/><rect class="cls-2" x="4" y="1320" width="4" height="52"/><rect class="cls-2" x="52" y="1320" width="4" height="52"/><line class="cls-8" x1="6" y1="1361.31" x2="19.38" y2="1334.83"/><line class="cls-8" x1="19.38" y1="1334.83" x2="37.25" y2="1368.58"/><line class="cls-8" x1="30" y1="1352.45" x2="38.35" y2="1341.73"/><line class="cls-8" x1="54" y1="1364.69" x2="38.35" y2="1341.73"/><circle class="cls-2" cx="44.4" cy="1332.83" r="4"/><rect class="cls-2" x="4" y="1505" width="52" height="4"/><rect class="cls-2" x="4" y="1457" width="4" height="52"/><rect class="cls-2" x="52" y="1457" width="4" height="52"/><line class="cls-11" x1="20.5" y1="1479.16" x2="12.17" y2="1487.49"/><line class="cls-11" x1="12.17" y1="1487.49" x2="20.5" y2="1495.83"/><line class="cls-11" x1="39.77" y1="1495.83" x2="48.1" y2="1487.49"/><line class="cls-11" x1="48.1" y1="1487.49" x2="39.77" y2="1479.16"/><line class="cls-11" x1="26.43" y1="1496.4" x2="34.03" y2="1479"/><path class="cls-2" d="M4,1457v14H56v-14Zm7.26,9.81a2.81,2.81,0,1,1,2.81-2.81A2.81,2.81,0,0,1,11.26,1466.81Zm8.52,0A2.81,2.81,0,1,1,22.6,1464,2.81,2.81,0,0,1,19.78,1466.81Zm7.63,0a2.81,2.81,0,1,1,2.81-2.81A2.81,2.81,0,0,1,27.41,1466.81Z"/><polygon class="cls-12" points="30.12 1399 50.12 1399 40.12 1414 30.12 1429 20.12 1414 10.12 1399 30.12 1399"/><rect class="cls-2" x="4.23" y="1582" width="52" height="4"/><rect class="cls-2" x="4.23" y="1534" width="52" height="4"/><rect class="cls-2" x="4.23" y="1534" width="4" height="52"/><rect class="cls-2" x="52.23" y="1534" width="4" height="52"/><line class="cls-13" x1="14.04" y1="1563.5" x2="30.23" y2="1563.5"/><line class="cls-13" x1="14.02" y1="1569.5" x2="45.98" y2="1569.5"/><line class="cls-13" x1="14.01" y1="1575.5" x2="45.98" y2="1575.5"/><line class="cls-13" x1="14" y1="1545" x2="45.98" y2="1545"/><line class="cls-13" x1="14" y1="1551" x2="30.23" y2="1551"/><line class="cls-13" x1="14" y1="1557" x2="30.23" y2="1557"/><rect class="cls-2" x="33.2" y="1549.2" width="12.77" height="15.6"/><line class="cls-13" x1="6.06" y1="1635.28" x2="30.35" y2="1635.28"/><line class="cls-13" x1="6.03" y1="1643.64" x2="53.97" y2="1643.64"/><line class="cls-13" x1="6.02" y1="1652" x2="53.96" y2="1652"/><line class="cls-13" x1="6" y1="1609.51" x2="53.96" y2="1609.51"/><line class="cls-13" x1="6" y1="1617.87" x2="30.35" y2="1617.87"/><line class="cls-13" x1="6" y1="1626.23" x2="30.34" y2="1626.23"/><rect class="cls-2" x="34.8" y="1615.36" width="19.16" height="21.73"/></svg>